<svg viewBox="0 0 300 160" aria-hidden="true" style="--stepF:40px;--stepP:91.9px;--armP:-115deg;--pdx:-39.3px;--stepS:73.2px;--stepC:63.9px;--stepJ:63.9px;--stepL:63.9px;--f0x:116.1px;--f0y:91.9px;--f1x:166.7px;--f1y:14.6px;--f2x:217.3px;--f2y:60.6px;--f3x:215.3px;--f3y:95.6px;--fy:127.4px"><defs><linearGradient id="oca6s" x1="0" y1="0" x2="1" y2=".35"><stop offset="0" stop-color="#e2aabc"/><stop offset=".45" stop-color="#db95ab"/><stop offset="1" stop-color="#b87d90"/></linearGradient><linearGradient id="oca6k" x1="0" y1="0" x2="1" y2=".35"><stop offset="0" stop-color="#ffe9d9"/><stop offset=".45" stop-color="#FFE3D0"/><stop offset="1" stop-color="#d6bfaf"/></linearGradient></defs>
    <rect x="0" y="0" width="300" height="118" fill="#F7EEFF"/><rect x="0" y="116" width="300" height="3" fill="#E3D5F2"/><rect x="0" y="119" width="300" height="41" fill="#EED9BD"/>
    <line x1="40" y1="119" x2="24" y2="160" stroke="#E0C7A6" stroke-width="1"/><line x1="110" y1="119" x2="94" y2="160" stroke="#E0C7A6" stroke-width="1"/><line x1="180" y1="119" x2="164" y2="160" stroke="#E0C7A6" stroke-width="1"/><line x1="250" y1="119" x2="234" y2="160" stroke="#E0C7A6" stroke-width="1"/><line x1="0" y1="139" x2="300" y2="139" stroke="#E0C7A6" stroke-width="1"/>
    <ellipse class="ps-glow" cx="219.3" cy="92.6" rx="46" ry="34" fill="#FFE27A"/>
    <g class="ps-sun" transform="translate(253.3 26)"><g class="sunin"><g class="rays"><line x1="13" y1="0" x2="19" y2="0" stroke="#FFB800" stroke-width="2.2" stroke-linecap="round"/><line x1="9.2" y1="9.2" x2="13.4" y2="13.4" stroke="#FFB800" stroke-width="2.2" stroke-linecap="round"/><line x1="0" y1="13" x2="0" y2="19" stroke="#FFB800" stroke-width="2.2" stroke-linecap="round"/><line x1="-9.2" y1="9.2" x2="-13.4" y2="13.4" stroke="#FFB800" stroke-width="2.2" stroke-linecap="round"/><line x1="-13" y1="0" x2="-19" y2="0" stroke="#FFB800" stroke-width="2.2" stroke-linecap="round"/><line x1="-9.2" y1="-9.2" x2="-13.4" y2="-13.4" stroke="#FFB800" stroke-width="2.2" stroke-linecap="round"/><line x1="0" y1="-13" x2="0" y2="-19" stroke="#FFB800" stroke-width="2.2" stroke-linecap="round"/><line x1="9.2" y1="-9.2" x2="13.4" y2="-13.4" stroke="#FFB800" stroke-width="2.2" stroke-linecap="round"/></g><circle r="10" fill="#FFD37A"/></g></g>
    <g class="ps-bowl" transform="translate(168 125.4)"><path d="M-12 -2q12 11 24 0z" fill="#8FB3F7"/><ellipse cx="0" cy="-2" rx="12" ry="3" fill="#C99A6B"/><circle cx="-4" cy="-3.4" r="1.5" fill="#8C5A3C"/><circle cx="3" cy="-3.8" r="1.5" fill="#8C5A3C"/><circle cx="0" cy="-2.4" r="1.4" fill="#A87A5A"/></g>
    <g class="ps-jelly" transform="translate(192.6 124.4)"><rect x="-6" y="-8" width="12" height="8" rx="2" fill="#FFFFFF" stroke="#D5D8EC"/><rect x="-5" y="-7" width="10" height="4" rx="1" fill="#F4A66B"/></g>
    <g transform="translate(92 150)"><g class="ps-o"><g transform="scale(1.12)"><g class="oj-avatar-art" data-art="2.5d"><defs><radialGradient id="ojav-5-skin" cx=".32" cy=".25" r=".83"><stop stop-color="#ffeadc"/><stop offset=".55" stop-color="#FFE3D0"/><stop offset=".88" stop-color="#ebd1bf"/><stop offset="1" stop-color="#d1baab"/></radialGradient><radialGradient id="ojav-5-hair" cx=".35" cy=".15" r=".92"><stop stop-color="#a2816d"/><stop offset=".36" stop-color="#8a6147"/><stop offset=".7" stop-color="#7A4B2E"/><stop offset="1" stop-color="#543420"/></radialGradient><linearGradient id="ojav-5-hairback" x1="0" y1="0" x2=".9" y2="1"><stop stop-color="#633d25"/><stop offset=".5" stop-color="#7A4B2E"/><stop offset=".82" stop-color="#875d43"/><stop offset="1" stop-color="#573521"/></linearGradient><radialGradient id="ojav-5-blush"><stop stop-color="#ED9D9A" stop-opacity=".58"/><stop offset="1" stop-color="#EA9B94" stop-opacity="0"/></radialGradient><linearGradient id="ojav-5-iris" x1="0" y1="0" x2="0" y2="1"><stop stop-color="#44282A"/><stop offset=".58" stop-color="#79503D"/><stop offset="1" stop-color="#C08F65"/></linearGradient><linearGradient id="ojav-5-pink" x1="0" y1="0" x2="1" y2="1"><stop stop-color="#F89AB4"/><stop offset="1" stop-color="#D85783"/></linearGradient><linearGradient id="ojav-5-m0" x1="0" y1="0" x2="1" y2=".65"><stop stop-color="#99abd2"/><stop offset=".34" stop-color="#869cca"/><stop offset=".7" stop-color="#7991C4"/><stop offset="1" stop-color="#61749d"/></linearGradient><linearGradient id="ojav-5-m1" x1="0" y1="0" x2="1" y2=".65"><stop stop-color="#aebcdb"/><stop offset=".34" stop-color="#9fb0d5"/><stop offset=".7" stop-color="#94a7d0"/><stop offset="1" stop-color="#7686a6"/></linearGradient><linearGradient id="ojav-5-m2" x1="0" y1="0" x2="1" y2=".65"><stop stop-color="#e4aebf"/><stop offset=".34" stop-color="#dfa0b3"/><stop offset=".7" stop-color="#db95ab"/><stop offset="1" stop-color="#af7789"/></linearGradient><linearGradient id="ojav-5-m3" x1="0" y1="0" x2="1" y2=".65"><stop stop-color="#f6bbce"/><stop offset=".34" stop-color="#f4afc5"/><stop offset=".7" stop-color="#F3A6BE"/><stop offset="1" stop-color="#c28598"/></linearGradient><linearGradient id="ojav-5-m4" x1="0" y1="0" x2="1" y2=".65"><stop stop-color="#ff92b6"/><stop offset=".34" stop-color="#ff7da9"/><stop offset=".7" stop-color="#FF6F9F"/><stop offset="1" stop-color="#cc597f"/></linearGradient><linearGradient id="ojav-5-m5" x1="0" y1="0" x2="1" y2=".65"><stop stop-color="#e7729c"/><stop offset=".34" stop-color="#e3588a"/><stop offset=".7" stop-color="#E0457D"/><stop offset="1" stop-color="#b33764"/></linearGradient><linearGradient id="ojav-5-m6" x1="0" y1="0" x2="1" y2=".65"><stop stop-color="#f7f4ee"/><stop offset=".34" stop-color="#f6f2eb"/><stop offset=".7" stop-color="#F5F1E9"/><stop offset="1" stop-color="#c4c1ba"/></linearGradient></defs><ellipse cx="0" cy="1.4" rx="15.8" ry="3.7" fill="#62516C" opacity=".08"/><ellipse cx="0" cy=".8" rx="10.5" ry="2.1" fill="#564B62" opacity=".12"/><g class="oj-av-hair-back"><path d="M-18-70 C-29-64-26-47-23-41 C-21-36-15-38-12-38 L13-38 C21-37 25-40 25-47 C27-57 25-66 18-70Z" fill="url(#ojav-5-hairback)" stroke="#663f27" stroke-width=".35" stroke-linejoin="round"/><path d="M-20-62 Q-25-48-18-41 M-15-60 Q-20-44-14-39 M20-62 Q25-48 18-41 M15-60 Q20-44 14-39" fill="none" stroke="#a2816d" stroke-width="1.4" stroke-linecap="round" stroke-linejoin="round" opacity=".2"/></g><path d="M-8.7-25 L-1-25 -.8-17 -1.2-4.2 Q-4.9-2.6-10.2-4.1 L-9.5-16Z" fill="url(#ojav-5-m0)" /><path d="M1-25 L8.7-25 9.5-16 10.2-4.1 Q4.9-2.6 1.2-4.2 L.8-17Z" fill="url(#ojav-5-m0)" /><rect x="-9" y="-6" width="8" height="2.4" fill="url(#ojav-5-m1)"/><rect x="1" y="-6" width="8" height="2.4" fill="url(#ojav-5-m1)"/><path d="M-11.7-40.7 Q-15.8-42-17-38.1 L-17.5-29.4 Q-17.7-24.1-14-23.2 Q-10.6-23-10.3-27.2 L-9.9-35.2Z" fill="url(#ojav-5-m2)" /><g transform="translate(-13.5 -22) scale(-1 1)"><path d="M-2.7-1.8 Q-2.5-3.4 .2-3.2 Q2.9-3.3 3.1-.6 L3 1.6 Q2.9 3.9.6 3.5 L-1.8 2.8 Q-4.1 1.9-3.5.2Z" fill="url(#ojav-5-skin)" /><path d="M-.2.8 L.6 2.3 M1.2.7 L1.8 2" fill="none" stroke="#d9c1b1" stroke-width="0.35" stroke-linecap="round" stroke-linejoin="round" /></g><path d="M-6.9-43.6 Q0-45 6.9-43.6 L11.6-39.8 Q12.8-37.4 11.5-32.2 L11.3-24 Q10.8-21.4 7.4-21.7 H-7.4 Q-10.8-21.4-11.3-24 L-11.5-32.2 Q-12.8-37.4-11.6-39.8Z" fill="url(#ojav-5-m3)" /><g class="oj-av-fabric" pointer-events="none"><path d="M-9.7-42.4 Q-6.4-44.8-1-40.3 L-3.5-35.8 Q-8.5-35.8-9.7-42.4Z" fill="#FFF6E9" /><path d="M9.7-42.4 Q6.4-44.8 1-40.3 L3.5-35.8 Q8.5-35.8 9.7-42.4Z" fill="#FFF6E9" /><path d="M0-35.8 V-22.4" fill="none" stroke="#c28598" stroke-width="0.5" stroke-linecap="round" stroke-linejoin="round" /><path d="M-8.7-26.4 H-3.7 M3.7-26.4 H8.7" fill="none" stroke="#c28598" stroke-width="0.55" stroke-linecap="round" stroke-linejoin="round" /><path d="M-8.5-25.7 H-4 M4-25.7 H8.5" fill="none" stroke="#f8cad8" stroke-width="0.45" stroke-linecap="round" stroke-linejoin="round" /><circle cx=".4" cy="-34" r="1.18" fill="#F5E4C6" stroke="#c28598" stroke-width=".22"/><circle cx=".1" cy="-34.35" r=".35" fill="#FFFDF5"/><circle cx=".4" cy="-29" r="1.18" fill="#F5E4C6" stroke="#c28598" stroke-width=".22"/><circle cx=".1" cy="-29.35" r=".35" fill="#FFFDF5"/><circle cx=".4" cy="-24" r="1.18" fill="#F5E4C6" stroke="#c28598" stroke-width=".22"/><circle cx=".1" cy="-24.35" r=".35" fill="#FFFDF5"/><path d="M-10.1-25.3 Q0-23 10.1-25.3" fill="none" stroke="#c28598" stroke-width="0.45" stroke-linecap="round" stroke-linejoin="round" opacity=".35"/><path d="M-9.7-39 Q-11-34-9.7-31 M9.7-39 Q11-34 9.7-31" fill="none" stroke="#f8cad8" stroke-width="0.6" stroke-linecap="round" stroke-linejoin="round" opacity=".65"/><path d="M-9 -32 l.35 .55 .35-.55 M-9 -28 l.35 .55 .35-.55" fill="none" stroke="#f8cad8" stroke-width="0.21" stroke-linecap="round" stroke-linejoin="round" opacity=".35"/><path d="M-7 -32 l.35 .55 .35-.55 M-7 -28 l.35 .55 .35-.55" fill="none" stroke="#f8cad8" stroke-width="0.21" stroke-linecap="round" stroke-linejoin="round" opacity=".35"/><path d="M-5 -32 l.35 .55 .35-.55 M-5 -28 l.35 .55 .35-.55" fill="none" stroke="#f8cad8" stroke-width="0.21" stroke-linecap="round" stroke-linejoin="round" opacity=".35"/><path d="M-3 -32 l.35 .55 .35-.55 M-3 -28 l.35 .55 .35-.55" fill="none" stroke="#f8cad8" stroke-width="0.21" stroke-linecap="round" stroke-linejoin="round" opacity=".35"/><path d="M-1 -32 l.35 .55 .35-.55 M-1 -28 l.35 .55 .35-.55" fill="none" stroke="#f8cad8" stroke-width="0.21" stroke-linecap="round" stroke-linejoin="round" opacity=".35"/><path d="M1 -32 l.35 .55 .35-.55 M1 -28 l.35 .55 .35-.55" fill="none" stroke="#f8cad8" stroke-width="0.21" stroke-linecap="round" stroke-linejoin="round" opacity=".35"/><path d="M3 -32 l.35 .55 .35-.55 M3 -28 l.35 .55 .35-.55" fill="none" stroke="#f8cad8" stroke-width="0.21" stroke-linecap="round" stroke-linejoin="round" opacity=".35"/><path d="M5 -32 l.35 .55 .35-.55 M5 -28 l.35 .55 .35-.55" fill="none" stroke="#f8cad8" stroke-width="0.21" stroke-linecap="round" stroke-linejoin="round" opacity=".35"/><path d="M7 -32 l.35 .55 .35-.55 M7 -28 l.35 .55 .35-.55" fill="none" stroke="#f8cad8" stroke-width="0.21" stroke-linecap="round" stroke-linejoin="round" opacity=".35"/><path d="M9 -32 l.35 .55 .35-.55 M9 -28 l.35 .55 .35-.55" fill="none" stroke="#f8cad8" stroke-width="0.21" stroke-linecap="round" stroke-linejoin="round" opacity=".35"/><path d="M-7.5-19 Q-7.6-10-8-6 M3.5-19 Q3.4-10 3-6" fill="none" stroke="#b5c3df" stroke-width="0.65" stroke-linecap="round" stroke-linejoin="round" opacity=".5"/><path d="M-7.8-7.7 l4.7 .5 M3-7.7 l4.7 .5" fill="none" stroke="#677ba7" stroke-width="0.55" stroke-linecap="round" stroke-linejoin="round" opacity=".7"/><path d="M-8.7-23 Q-7.8-19-3.4-20 M8.7-23 Q7.8-19 3.4-20 M-.3-23 v4" fill="none" stroke="#61749d" stroke-width="0.52" stroke-linecap="round" stroke-linejoin="round" /><path d="M-7.3-15 l3.4-.7 M3.4-15 l3.4.7" fill="none" stroke="#afbddc" stroke-width="0.5" stroke-linecap="round" stroke-linejoin="round" opacity=".7"/></g><g class="oj-av-shoes"><g transform="translate(-5.5 0)"><path d="M-4.9-1 Q-5.1-4.9-.8-5.6 Q2.1-5.9 3.7-3.6 Q6.2-2.7 5.6-.1 Q2.8 2-3.6.9 Q-5.1.7-4.9-1Z" fill="url(#ojav-5-m6)" stroke="#bfbcb6" stroke-width=".4"/><path d="M-4.8-.8 Q.2.8 5.5-.4 L5.3.5 Q1.1 2.2-4.5 1Z" fill="#e1ded6" /><path d="M-2.1-3.8 L1.6-3.7 M-1.5-2.6 L2.4-2.5" fill="none" stroke="#FFFFFF" stroke-width="0.75" stroke-linecap="round" stroke-linejoin="round" /><path d="M-4.2-1.8 Q.2-.5 4.8-1.6" fill="none" stroke="#ddd9d2" stroke-width="0.48" stroke-linecap="round" stroke-linejoin="round" /></g><g transform="translate(5.5 0)"><path d="M-4.9-1 Q-5.1-4.9-.8-5.6 Q2.1-5.9 3.7-3.6 Q6.2-2.7 5.6-.1 Q2.8 2-3.6.9 Q-5.1.7-4.9-1Z" fill="url(#ojav-5-m6)" stroke="#bfbcb6" stroke-width=".4"/><path d="M-4.8-.8 Q.2.8 5.5-.4 L5.3.5 Q1.1 2.2-4.5 1Z" fill="#e1ded6" /><path d="M-2.1-3.8 L1.6-3.7 M-1.5-2.6 L2.4-2.5" fill="none" stroke="#FFFFFF" stroke-width="0.75" stroke-linecap="round" stroke-linejoin="round" /><path d="M-4.2-1.8 Q.2-.5 4.8-1.6" fill="none" stroke="#ddd9d2" stroke-width="0.48" stroke-linecap="round" stroke-linejoin="round" /></g></g><g class="oj-av-face"><ellipse cx="-18.1" cy="-57.4" rx="3.65" ry="5.5" fill="url(#ojav-5-skin)"/><ellipse cx="18.1" cy="-57.4" rx="3.65" ry="5.5" fill="url(#ojav-5-skin)"/><path d="M-19.4-59.8 Q-16.4-61-17.2-54.8 M19.4-59.8 Q16.4-61 17.2-54.8" fill="none" stroke="#c7b1a2" stroke-width="0.68" stroke-linecap="round" stroke-linejoin="round" opacity=".55"/><path d="M-18.9-62.2 C-19.6-74.8-11.4-80.1 0-80.1 C11.4-80.1 19.6-74.8 18.9-62.2 L18.4-55.3 C17.7-45.9 9.5-41.4 0-40.95 C-9.5-41.4-17.7-45.9-18.4-55.3Z" fill="url(#ojav-5-skin)" stroke="#d9c1b1" stroke-width=".4"/><ellipse cx="-11.7" cy="-51.8" rx="5.2" ry="3.8" fill="url(#ojav-5-blush)"/><ellipse cx="11.7" cy="-51.8" rx="5.2" ry="3.8" fill="url(#ojav-5-blush)"/><path d="M-10.5-64.4 Q-7-66-3.8-64.6 M3.8-64.6 Q7-66 10.5-64.4" fill="none" stroke="#69423A" stroke-width="0.9" stroke-linecap="round" stroke-linejoin="round" opacity=".7"/><g class="oj-av-eye"><ellipse cx="-7" cy="-58" rx="3.8" ry="4.85" fill="#FFF9F3"/><ellipse cx="-6.85" cy="-57.75" rx="3.05" ry="4.3" fill="url(#ojav-5-iris)"/><ellipse cx="-6.78" cy="-58.15" rx="1.66" ry="3.02" fill="#302325"/><ellipse cx="-8.08" cy="-60.03" rx="1.12" ry="1.36" fill="#FFFFFF"/><circle cx="-5.65" cy="-55.8" r=".56" fill="#FFECCF"/><path d="M-10.65 -57.2 C-10.5 -63.1 -3.85 -63.4 -3.35 -57.4" fill="none" stroke="#56352F" stroke-width="0.86" stroke-linecap="round" stroke-linejoin="round" /><path d="M-9.25 -53.5 Q-7 -52.95 -5 -53.65" fill="none" stroke="#C99583" stroke-width="0.38" stroke-linecap="round" stroke-linejoin="round" opacity=".5"/></g><g class="oj-av-eye"><ellipse cx="7" cy="-58" rx="3.8" ry="4.85" fill="#FFF9F3"/><ellipse cx="7.15" cy="-57.75" rx="3.05" ry="4.3" fill="url(#ojav-5-iris)"/><ellipse cx="7.22" cy="-58.15" rx="1.66" ry="3.02" fill="#302325"/><ellipse cx="5.92" cy="-60.03" rx="1.12" ry="1.36" fill="#FFFFFF"/><circle cx="8.35" cy="-55.8" r=".56" fill="#FFECCF"/><path d="M3.35 -57.2 C3.5 -63.1 10.15 -63.4 10.65 -57.4" fill="none" stroke="#56352F" stroke-width="0.86" stroke-linecap="round" stroke-linejoin="round" /><path d="M4.75 -53.5 Q7 -52.95 9 -53.65" fill="none" stroke="#C99583" stroke-width="0.38" stroke-linecap="round" stroke-linejoin="round" opacity=".5"/></g><path d="M-.25-55.4 Q-1.1-53.1 .1-52.9 Q1.5-52.9 1.75-53.55" fill="#d9c1b1" opacity=".72"/><ellipse cx="-.15" cy="-53.75" rx=".75" ry=".55" fill="#FFFFFF" opacity=".35"/><path d="M-3.4-49.9 Q0-47.5 3.4-49.9 Q2.4-46.25 0-46.15 Q-2.4-46.25-3.4-49.9Z" fill="#A9474A" /><path d="M-1.7-47.1 Q0-48.2 1.7-47.1 Q0-45.9-1.7-47.1Z" fill="#F4A09A" /></g><g class="oj-av-hair-front"><path d="M-20-52 C-28-68-20-83-7-83 Q8-88 18-76 C26-68 25-58 19-50 L17-63 Q13-65 11-70 C6-62-3-64-10-66 Q-14-61-18-57Z" fill="url(#ojav-5-hair)" stroke="#663f27" stroke-width=".3" stroke-linejoin="round"/><path d="M-16-65 Q-18-77-5-79 M-10-70 Q-10-77-2-79 M-3-71 Q2-74 5-79 M9-77 Q17-76 19-65" fill="none" stroke="#a2816d" stroke-width="1.2" stroke-linecap="round" stroke-linejoin="round" opacity=".25"/><path d="M-16-65 Q-18-77-5-79 M-10-70 Q-10-77-2-79 M-3-71 Q2-74 5-79 M9-77 Q17-76 19-65" fill="none" stroke="#9a7660" stroke-width="0.35" stroke-linecap="round" stroke-linejoin="round" opacity=".32"/><path d="M-17.3-68.1 C-17.4-74.7-9.6-79.6-3.3-79.1 C-9.9-76.8-13.8-73.7-17.3-68.1Z" fill="#ccbbb0" opacity=".15"/><path d="M-16.3-70.4 C-14.7-74.4-10.3-77.3-5.6-78.2" fill="none" stroke="#d3c4ba" stroke-width="0.52" stroke-linecap="round" stroke-linejoin="round" opacity=".32"/><path d="M-11.5-73.7 Q-8.8-77-3.5-78.4 M11.1-75.2 Q15.5-72.4 16.9-67.1" fill="none" stroke="#baa192" stroke-width="0.3" stroke-linecap="round" stroke-linejoin="round" opacity=".45"/></g><g class="oj-av-accessory"><path d="M10.8-77 Q1-88 .5-81 L1.1-72.4 Q5.6-71.9 10.8-76 M12-77 Q20.8-88 22.2-81 L21.7-72.4 Q17.2-71.9 12-76Z" fill="url(#ojav-5-pink)" stroke="#D26F94" stroke-width=".4"/><ellipse cx="11.5" cy="-77" rx="2.65" ry="3.1" fill="#E899B3"/><path d="M3.7-78.9 8.7-77 M19.4-78.9 14.4-77" fill="none" stroke="#FFD1DF" stroke-width="0.75" stroke-linecap="round" stroke-linejoin="round" /></g></g>
      <g class="ps-heye"><ellipse cx="-7" cy="-58" rx="4.4" ry="5.1" fill="#FFE3D0"/><path transform="translate(-7 -58.5) scale(.62)" d="M0 3.6C-5 -.4-4.6-5.2-1.9-5.2-.8-5.2 0-4.4 0-3.5 0-4.4.8-5.2 1.9-5.2 4.6-5.2 5-.4 0 3.6Z" fill="#F0467C"/><ellipse cx="7" cy="-58" rx="4.4" ry="5.1" fill="#FFE3D0"/><path transform="translate(7 -58.5) scale(.62)" d="M0 3.6C-5 -.4-4.6-5.2-1.9-5.2-.8-5.2 0-4.4 0-3.5 0-4.4.8-5.2 1.9-5.2 4.6-5.2 5-.4 0 3.6Z" fill="#F0467C"/></g>
      <g transform="translate(13.5 -38)"><g class="ps-arm"><g transform="translate(-13.5 38)"><path data-ojjuda-care-art="2" d="M10.1-37.8Q9.5-40.6 12.4-41Q16.2-41.5 17-37.5L17.2-25Q16.9-22.8 13.7-22.8Q10.5-22.8 10.4-25Z" fill="url(#oca6s)"/><path d="M10.7-25Q13.7-23.6 16.8-25" fill="none" stroke="#af7789" stroke-width=".65" opacity=".65"/><path d="M11.6-38.4Q11-34.5 11.7-29" fill="none" stroke="#e7b9c8" stroke-width=".55" opacity=".55"/><ellipse cx="13.5" cy="-21.6" rx="3.35" ry="3.65" fill="url(#oca6k)"/><path d="M11.1-22.5q1.2-1.6 1.7.4" fill="none" stroke="#d1baab" stroke-width=".45" stroke-linecap="round" opacity=".5"/><g class="held held-bowl" transform="translate(14 -19) scale(.7)"><path d="M-12 -2q12 11 24 0z" fill="#8FB3F7"/><ellipse cx="0" cy="-2" rx="12" ry="3" fill="#C99A6B"/><circle cx="-4" cy="-3.4" r="1.5" fill="#8C5A3C"/><circle cx="3" cy="-3.8" r="1.5" fill="#8C5A3C"/><circle cx="0" cy="-2.4" r="1.4" fill="#A87A5A"/></g>
        <g class="held held-ball" transform="translate(15 -21)"><circle r="5" fill="#F3A6BE"/><path d="M-5 0q5 3 10 0" stroke="#FFFFFF" stroke-width="1.2" fill="none"/></g>
        <g class="held held-cricket" transform="translate(15 -24) scale(.8)"><ellipse cx="0" cy="0" rx="4.4" ry="2.2" fill="#6B8E23"/><circle cx="-4" cy="-.6" r="1.4" fill="#556B2F"/><path d="M-1 1l-3 3M2 1l3 3M-5 -1l-4 -3" stroke="#556B2F" stroke-width="1"/></g>
        <g class="held held-jelly" transform="translate(15 -20) scale(.8)"><rect x="-6" y="-8" width="12" height="8" rx="2" fill="#FFFFFF" stroke="#D5D8EC"/><rect x="-5" y="-7" width="10" height="4" rx="1" fill="#F4A66B"/></g>
        <g class="held held-glass" transform="translate(16 -26)"><circle r="7" fill="#DDEFFF" fill-opacity=".5" stroke="#8C90B5" stroke-width="2"/><path d="M-4 6l-4 8" stroke="#8C5A3C" stroke-width="3" stroke-linecap="round"/></g>
      </g></g></g></g></g></g>
    <g transform="translate(62 30)"><g class="ps-hi"><rect x="-4" y="-13" width="40" height="18" rx="9" fill="#FFFFFF" stroke="#F3C1CF"/><text x="16" y="0" font-size="10" text-anchor="middle" fill="#23264A">안녕!</text></g></g>
    <g transform="translate(232 123.4)"><g class="ps-p"><g transform="translate(-232 -123.4)"><svg x="170" y="40" width="124" height="116" viewBox="170 136 60 64" aria-hidden="true"><defs><radialGradient id="op5g0" cx="30%" cy="22%" r="82%" fx="24%" fy="18%"><stop offset="0" stop-color="#b08d78"/><stop offset=".36" stop-color="#986b50"/><stop offset=".72" stop-color="#8C5A3C"/><stop offset="1" stop-color="#6a442e"/></radialGradient><radialGradient id="op5g1" cx="30%" cy="22%" r="82%" fx="24%" fy="18%"><stop offset="0" stop-color="#987e6f"/><stop offset=".36" stop-color="#795743"/><stop offset=".72" stop-color="#6a442e"/><stop offset="1" stop-color="#513423"/></radialGradient><radialGradient id="op5g2" cx="30%" cy="22%" r="82%" fx="24%" fy="18%"><stop offset="0" stop-color="#a28473"/><stop offset=".36" stop-color="#865f48"/><stop offset=".72" stop-color="#784d34"/><stop offset="1" stop-color="#5b3b28"/></radialGradient><radialGradient id="op5g3" cx="30%" cy="22%" r="82%" fx="24%" fy="18%"><stop offset="0" stop-color="#bfa392"/><stop offset=".36" stop-color="#ab8671"/><stop offset=".72" stop-color="#a27961"/><stop offset="1" stop-color="#7b5c4a"/></radialGradient><radialGradient id="op5g4" cx="30%" cy="22%" r="82%" fx="24%" fy="18%"><stop offset="0" stop-color="#d1bdb1"/><stop offset=".36" stop-color="#c3a999"/><stop offset=".72" stop-color="#bc9f8e"/><stop offset="1" stop-color="#8f796c"/></radialGradient><radialGradient id="op5g5" cx="30%" cy="22%" r="82%" fx="24%" fy="18%"><stop offset="0" stop-color="#7f6b65"/><stop offset=".36" stop-color="#654e46"/><stop offset=".72" stop-color="#543a31"/><stop offset="1" stop-color="#2d1f1a"/></radialGradient><radialGradient id="op5g6" cx="30%" cy="22%" r="82%" fx="24%" fy="18%"><stop offset="0" stop-color="#9b7c6c"/><stop offset=".36" stop-color="#86624f"/><stop offset=".72" stop-color="#79503b"/><stop offset="1" stop-color="#412b20"/></radialGradient><radialGradient id="op5g7" cx="30%" cy="22%" r="82%" fx="24%" fy="18%"><stop offset="0" stop-color="#d7b599"/><stop offset=".36" stop-color="#cb9f7a"/><stop offset=".72" stop-color="#c5946b"/><stop offset="1" stop-color="#967051"/></radialGradient><radialGradient id="op5g8" cx="30%" cy="22%" r="82%" fx="24%" fy="18%"><stop offset="0" stop-color="#6e615f"/><stop offset=".36" stop-color="#51413f"/><stop offset=".72" stop-color="#3e2c2a"/><stop offset="1" stop-color="#211817"/></radialGradient></defs><ellipse cx="202" cy="183" rx="19.3" ry="5.1" fill="#443348" opacity=".035"/><ellipse cx="202" cy="182.6" rx="17.3" ry="3.9" fill="#443348" opacity=".06"/><ellipse cx="202" cy="182.5" rx="13.4" ry="2.7" fill="#443348" opacity=".08"/><path d="M217.3 172.1q10-2 9-12" fill="none" stroke="url(#op5g0)" stroke-width="3.2" stroke-linecap="round"/><path d="M192 176q2.4 -1 3.2 .2l.4 4.1q.8 2-1.6 2h-1.3q-1.6-.2-1.1-1.8z" fill="url(#op5g2)" /><ellipse cx="193.7" cy="181.5" rx="2.2" ry="1.2" fill="url(#op5g2)" /><path d="M193.2 181.3v.7m1.1-.7v.7" fill="none" stroke="#503423" stroke-width=".25" opacity=".7"/><path d="M209.4 176q2.4 -1 3.2 .2l.4 4.1q.8 2-1.6 2h-1.3q-1.6-.2-1.1-1.8z" fill="url(#op5g2)" /><ellipse cx="211.1" cy="181.5" rx="2.2" ry="1.2" fill="url(#op5g2)" /><path d="M210.6 181.3v.7m1.1-.7v.7" fill="none" stroke="#503423" stroke-width=".25" opacity=".7"/><path d="M186.7 172.1C185.7 164.1 216.3 163.6 219.3 172.1C221.3 180.1 208 182.1 188.7 179.1Z" fill="url(#op5g0)" /><ellipse cx="202" cy="170.1" rx="11.3" ry="2.6" fill="url(#op5g3)" opacity=".38"/><path d="M190.3 177q2.8 -1 3.8 .2l.4 4.1q.8 2-1.6 2h-1.3q-1.6-.2-1.1-1.8z" fill="url(#op5g0)" /><ellipse cx="192.4" cy="182.5" rx="2.7" ry="1.2" fill="url(#op5g0)" /><path d="M191.8 182.3v.7m1.1-.7v.7" fill="none" stroke="#5e3c28" stroke-width=".25" opacity=".7"/><path d="M210.4 177q2.8 -1 3.8 .2l.4 4.1q.8 2-1.6 2h-1.3q-1.6-.2-1.1-1.8z" fill="url(#op5g0)" /><ellipse cx="212.5" cy="182.5" rx="2.7" ry="1.2" fill="url(#op5g0)" /><path d="M211.9 182.3v.7m1.1-.7v.7" fill="none" stroke="#5e3c28" stroke-width=".25" opacity=".7"/><path d="M192.7 171.1q-.6 1.1-1.3 1.8" fill="none" stroke="#b59582" stroke-width=".34" stroke-linecap="round" opacity=".48"/><path d="M206.6 172.8q-.6 1.1-1.3 1.8" fill="none" stroke="#b59582" stroke-width=".34" stroke-linecap="round" opacity=".48"/><path d="M202.6 174.4q-.6 1.1-1.3 1.8" fill="none" stroke="#b59582" stroke-width=".34" stroke-linecap="round" opacity=".48"/><path d="M198.6 171.1q-.6 1.1-1.3 1.8" fill="none" stroke="#b59582" stroke-width=".34" stroke-linecap="round" opacity=".48"/><path d="M194.7 172.8q-.6 1.1-1.3 1.8" fill="none" stroke="#b59582" stroke-width=".34" stroke-linecap="round" opacity=".48"/><path d="M208.6 174.4q-.6 1.1-1.3 1.8" fill="none" stroke="#b59582" stroke-width=".34" stroke-linecap="round" opacity=".48"/><path d="M204.6 171.1q-.6 1.1-1.3 1.8" fill="none" stroke="#b59582" stroke-width=".34" stroke-linecap="round" opacity=".48"/><path d="M200.6 172.8q-.6 1.1-1.3 1.8" fill="none" stroke="#b59582" stroke-width=".34" stroke-linecap="round" opacity=".48"/><path d="M196.6 174.4q-.6 1.1-1.3 1.8" fill="none" stroke="#b59582" stroke-width=".34" stroke-linecap="round" opacity=".48"/><path d="M182.9 163.4C181.9 153 201.8 152.8 201.8 163.4Q202.8 171.8 192.3 171.7Q181.9 171 182.9 163.4Z" fill="url(#op5g0)" /><path d="M186.7 157.1q-.6 1.1-1.3 1.8" fill="none" stroke="#c8b0a1" stroke-width=".34" stroke-linecap="round" opacity=".48"/><path d="M186.7 158.4q-.6 1.1-1.3 1.8" fill="none" stroke="#c8b0a1" stroke-width=".34" stroke-linecap="round" opacity=".48"/><path d="M186.7 159.7q-.6 1.1-1.3 1.8" fill="none" stroke="#c8b0a1" stroke-width=".34" stroke-linecap="round" opacity=".48"/><path d="M186.7 157.1q-.6 1.1-1.3 1.8" fill="none" stroke="#c8b0a1" stroke-width=".34" stroke-linecap="round" opacity=".48"/><path d="M186.7 158.4q-.6 1.1-1.3 1.8" fill="none" stroke="#c8b0a1" stroke-width=".34" stroke-linecap="round" opacity=".48"/><path d="M186.7 159.7q-.6 1.1-1.3 1.8" fill="none" stroke="#c8b0a1" stroke-width=".34" stroke-linecap="round" opacity=".48"/><path d="M186.7 157.1q-.6 1.1-1.3 1.8" fill="none" stroke="#c8b0a1" stroke-width=".34" stroke-linecap="round" opacity=".48"/><ellipse cx="185.4" cy="167.2" rx="2.2" ry="1.1" fill="#ec99a4" opacity=".32"/><ellipse cx="199.2" cy="167.2" rx="2.2" ry="1.1" fill="#ec99a4" opacity=".3"/><ellipse cx="188.5" cy="158.9" rx="2" ry="1" fill="url(#op5g4)" /><ellipse cx="196.1" cy="158.9" rx="2" ry="1" fill="url(#op5g4)" /><ellipse cx="188.6" cy="162.8" rx="2.6" ry="3" fill="url(#op5g5)" /><ellipse cx="188.6" cy="163.2" rx="1.9" ry="1.9" fill="url(#op5g6)" /><ellipse cx="188.6" cy="162.9" rx="1.3" ry="1.9" fill="#211b23" /><ellipse cx="187.9" cy="161.5" rx="0.8" ry="0.9" fill="#fff" opacity=".96"/><circle cx="189.3" cy="163.7" r="0.3" fill="#fff" opacity=".75"/><path d="M186 161.4q2.6 -2.3 5.1 0" fill="none" stroke="#654a40" stroke-width="0.4" stroke-linecap="round" opacity=".62"/><ellipse cx="196.1" cy="162.8" rx="2.6" ry="3" fill="url(#op5g5)" /><ellipse cx="196.1" cy="163.2" rx="1.9" ry="1.9" fill="url(#op5g6)" /><ellipse cx="196.1" cy="162.9" rx="1.3" ry="1.9" fill="#211b23" /><ellipse cx="195.4" cy="161.5" rx="0.8" ry="0.9" fill="#fff" opacity=".96"/><circle cx="196.8" cy="163.7" r="0.3" fill="#fff" opacity=".75"/><path d="M193.5 161.4q2.6 -2.3 5.1 0" fill="none" stroke="#654a40" stroke-width="0.4" stroke-linecap="round" opacity=".62"/><ellipse cx="190.1" cy="167.9" rx="3.2" ry="2.4" fill="url(#op5g7)" /><ellipse cx="194.5" cy="167.9" rx="3.2" ry="2.4" fill="url(#op5g7)" /><path d="M190.4 166.4Q192.3 165.2 194.2 166.4Q194 168 192.3 168.3Q190.6 168 190.4 166.4Z" fill="url(#op5g8)" /><ellipse cx="191.7" cy="166.4" rx="0.7" ry="0.3" fill="#fff" opacity=".58"/><path d="M192.3 168.2v1.2m0 0q-1.5 1.7-3.1 .3m3.1-.3q1.5 1.7 3.1 .3" fill="none" stroke="#694638" stroke-width=".42" stroke-linecap="round"/><path d="M185.7 158.2C178.7 155.8 178.7 175.4 183.7 175.4Q187.7 174.4 185.7 158.2Z" fill="url(#op5g1)" /><path d="M182.9 161.4q-1.5 4 .2 8" fill="none" stroke="#977c6d" stroke-width=".65" stroke-linecap="round" opacity=".65"/><path d="M198.9 158.2C205.9 155.8 205.9 175.4 200.9 175.4Q196.9 174.4 198.9 158.2Z" fill="url(#op5g1)" /><path d="M201.7 161.4q1.5 4 .2 8" fill="none" stroke="#977c6d" stroke-width=".65" stroke-linecap="round" opacity=".65"/></svg></g></g></g>
    <g class="ps-blush"><ellipse cx="214.3" cy="96.6" rx="3.2" ry="1.9" fill="#FF8FB1" opacity=".75"/><ellipse cx="224.3" cy="96.6" rx="3.2" ry="1.9" fill="#FF8FB1" opacity=".75"/></g>
    <g class="ps-crumbs"><circle cx="160" cy="117.4" r="1.3" fill="#A87A5A"/><circle cx="175" cy="115.4" r="1.3" fill="#A87A5A"/><circle cx="165" cy="112.4" r="1.3" fill="#A87A5A"/><circle cx="178" cy="119.4" r="1.3" fill="#A87A5A"/></g>
    <g transform="translate(186 66.6)"><g class="ps-nom"><rect x="-4" y="-12" width="34" height="16" rx="8" fill="#FFFFFF" stroke="#F3C1CF"/><text x="13" y="0" font-size="9.5" text-anchor="middle" fill="#23264A">냠냠!</text></g></g>
    <g transform="translate(213.3 62.6)"><g class="ps-yum"><rect x="-4" y="-12" width="28" height="16" rx="8" fill="#FFFFFF" stroke="#F3C1CF"/><text x="10" y="0" font-size="9.5" text-anchor="middle" fill="#23264A">냠!</text></g></g>
    <g transform="translate(219.3 80.6)"><g class="ps-excl"><circle r="8" fill="#FFD37A"/><text x="0" y="4" font-size="12" font-weight="800" text-anchor="middle" fill="#23264A">!</text></g></g>
    <g class="ps-dust"><circle cx="222" cy="124.4" r="4" fill="#FFFFFF" opacity=".9"/><circle cx="242" cy="124.4" r="4" fill="#FFFFFF" opacity=".9"/></g>
    <g class="ps-seeds"><circle class="sd" r="1.7" fill="#E0B065" style="--sx:189.3px;--sy:95.9px;--ex:213.3px;--ey:114.6px;animation-delay:0.00s"/><circle class="sd" r="1.7" fill="#E0B065" style="--sx:189.3px;--sy:95.9px;--ex:217.3px;--ey:117.6px;animation-delay:0.08s"/><circle class="sd" r="1.7" fill="#E0B065" style="--sx:189.3px;--sy:95.9px;--ex:221.3px;--ey:112.6px;animation-delay:0.16s"/><circle class="sd" r="1.7" fill="#E0B065" style="--sx:189.3px;--sy:95.9px;--ex:225.3px;--ey:116.6px;animation-delay:0.24s"/><circle class="sd" r="1.7" fill="#E0B065" style="--sx:189.3px;--sy:95.9px;--ex:219.3px;--ey:119.6px;animation-delay:0.32s"/></g><g class="ps-notes"><text class="nt" font-size="17" fill="#6E7BEA" style="--sx:95px;--sy:91.8px;--mx:157.2px;--my:69.8px;--ex:211.3px;--ey:82.6px;animation-delay:0.00s">♪</text><text class="nt" font-size="17" fill="#F0679A" style="--sx:95px;--sy:91.8px;--mx:157.2px;--my:63.8px;--ex:211.3px;--ey:82.6px;animation-delay:0.34s">♫</text><text class="nt" font-size="17" fill="#7FD1A1" style="--sx:95px;--sy:91.8px;--mx:157.2px;--my:57.8px;--ex:211.3px;--ey:82.6px;animation-delay:0.68s">♪</text></g>
    <g class="ps-cfall" style="--sx:175.7px;--sy:86.1px;--mx:219.3px;--my:82.6px;--ex:221.3px;--ey:92.6px"><ellipse cx="0" cy="0" rx="4.4" ry="2.2" fill="#6B8E23"/><circle cx="-4" cy="-.6" r="1.4" fill="#556B2F"/><path d="M-1 1l-3 3M2 1l3 3M-5 -1l-4 -3" stroke="#556B2F" stroke-width="1"/></g>
    <ellipse class="ps-shd" rx="6" ry="1.8" fill="rgba(35,38,74,.25)"/>
    <g class="ps-fly"><g class="spin"><circle r="6" fill="#F3A6BE"/><path d="M-6 0q6 3.4 12 0" stroke="#FFFFFF" stroke-width="1.4" fill="none"/></g></g>
    <g class="ps-small"><g transform="translate(211.3 82.6)"><g class="sh sh1"><path transform="scale(0.8)" d="M0 3.6C-5 -.4-4.6-5.2-1.9-5.2-.8-5.2 0-4.4 0-3.5 0-4.4.8-5.2 1.9-5.2 4.6-5.2 5-.4 0 3.6Z" fill="#F0679A"/></g></g><g transform="translate(227.3 80.6)"><g class="sh sh2"><path transform="scale(0.7)" d="M0 3.6C-5 -.4-4.6-5.2-1.9-5.2-.8-5.2 0-4.4 0-3.5 0-4.4.8-5.2 1.9-5.2 4.6-5.2 5-.4 0 3.6Z" fill="#F0679A"/></g></g><g transform="translate(219.3 78.6)"><g class="sh sh3"><path transform="scale(0.75)" d="M0 3.6C-5 -.4-4.6-5.2-1.9-5.2-.8-5.2 0-4.4 0-3.5 0-4.4.8-5.2 1.9-5.2 4.6-5.2 5-.4 0 3.6Z" fill="#F0679A"/></g></g></g>
    <g class="ps-hearts"><g transform="translate(168 76.6)"><g class="hbf hb1"><path transform="scale(1.2)" d="M0 3.6C-5 -.4-4.6-5.2-1.9-5.2-.8-5.2 0-4.4 0-3.5 0-4.4.8-5.2 1.9-5.2 4.6-5.2 5-.4 0 3.6Z" fill="#F0679A"/></g></g><g transform="translate(182 68.6)"><g class="hbf hb2"><path transform="scale(1.5)" d="M0 3.6C-5 -.4-4.6-5.2-1.9-5.2-.8-5.2 0-4.4 0-3.5 0-4.4.8-5.2 1.9-5.2 4.6-5.2 5-.4 0 3.6Z" fill="#F0679A"/></g></g><g transform="translate(194 78.6)"><g class="hbf hb3"><path transform="scale(1.1)" d="M0 3.6C-5 -.4-4.6-5.2-1.9-5.2-.8-5.2 0-4.4 0-3.5 0-4.4.8-5.2 1.9-5.2 4.6-5.2 5-.4 0 3.6Z" fill="#F0679A"/></g></g><g transform="translate(207.3 76.6)"><g class="hb hb1"><path transform="scale(1.2)" d="M0 3.6C-5 -.4-4.6-5.2-1.9-5.2-.8-5.2 0-4.4 0-3.5 0-4.4.8-5.2 1.9-5.2 4.6-5.2 5-.4 0 3.6Z" fill="#F0679A"/></g></g><g transform="translate(221.3 68.6)"><g class="hb hb2"><path transform="scale(1.5)" d="M0 3.6C-5 -.4-4.6-5.2-1.9-5.2-.8-5.2 0-4.4 0-3.5 0-4.4.8-5.2 1.9-5.2 4.6-5.2 5-.4 0 3.6Z" fill="#F0679A"/></g></g><g transform="translate(233.3 78.6)"><g class="hb hb3"><path transform="scale(1.1)" d="M0 3.6C-5 -.4-4.6-5.2-1.9-5.2-.8-5.2 0-4.4 0-3.5 0-4.4.8-5.2 1.9-5.2 4.6-5.2 5-.4 0 3.6Z" fill="#F0679A"/></g></g></g>
    <g class="ps-stars"><g transform="translate(205.3 72.6)"><g class="st st1"><path d="M0-6 1.8-2 6-1.8 2.8 1 3.8 5.4 0 3 -3.8 5.4-2.8 1-6-1.8-1.8-2Z" fill="#FFD37A" stroke="#F2B84B" stroke-width=".6"/></g></g><g transform="translate(223.3 62.6)"><g class="st st2"><path d="M0-6 1.8-2 6-1.8 2.8 1 3.8 5.4 0 3 -3.8 5.4-2.8 1-6-1.8-1.8-2Z" fill="#FFD37A" stroke="#F2B84B" stroke-width=".6"/></g></g><g transform="translate(235.3 76.6)"><g class="st st3"><path d="M0-6 1.8-2 6-1.8 2.8 1 3.8 5.4 0 3 -3.8 5.4-2.8 1-6-1.8-1.8-2Z" fill="#FFD37A" stroke="#F2B84B" stroke-width=".6"/></g></g></g>
    <text class="ps-gain" x="237.3" y="64.6" font-size="12" font-weight="800" fill="#F0679A" text-anchor="middle"></text>
  </svg>
