<svg xmlns="http://www.w3.org/2000/svg" viewBox="170 114 60 86" aria-hidden="true"><defs><radialGradient id="opbg0" cx="30%" cy="22%" r="82%" fx="24%" fy="18%"><stop offset="0" stop-color="#aaacc4"/><stop offset=".36" stop-color="#9093b3"/><stop offset=".72" stop-color="#8487aa"/><stop offset="1" stop-color="#646781"/></radialGradient><radialGradient id="opbg1" cx="30%" cy="22%" r="82%" fx="24%" fy="18%"><stop offset="0" stop-color="#9c9eb3"/><stop offset=".36" stop-color="#7e819c"/><stop offset=".72" stop-color="#707391"/><stop offset="1" stop-color="#55576e"/></radialGradient><radialGradient id="opbg2" cx="30%" cy="22%" r="82%" fx="24%" fy="18%"><stop offset="0" stop-color="#bcbfd4"/><stop offset=".36" stop-color="#a8abc7"/><stop offset=".72" stop-color="#9ea2c1"/><stop offset="1" stop-color="#787b93"/></radialGradient><radialGradient id="opbg3" cx="30%" cy="22%" r="82%" fx="24%" fy="18%"><stop offset="0" stop-color="#acd8ee"/><stop offset=".36" stop-color="#92cce9"/><stop offset=".72" stop-color="#86c6e6"/><stop offset="1" stop-color="#6696af"/></radialGradient><radialGradient id="opbg4" cx="30%" cy="22%" r="82%" fx="24%" fy="18%"><stop offset="0" stop-color="#9ec4d6"/><stop offset=".36" stop-color="#80b2ca"/><stop offset=".72" stop-color="#72a9c4"/><stop offset="1" stop-color="#578095"/></radialGradient><radialGradient id="opbg5" cx="30%" cy="22%" r="82%" fx="24%" fy="18%"><stop offset="0" stop-color="#bee5f9"/><stop offset=".36" stop-color="#aadef8"/><stop offset=".72" stop-color="#a1daf7"/><stop offset="1" stop-color="#7aa6bc"/></radialGradient><radialGradient id="opbg6" cx="30%" cy="22%" r="82%" fx="24%" fy="18%"><stop offset="0" stop-color="#d3eefc"/><stop offset=".36" stop-color="#c5e9fb"/><stop offset=".72" stop-color="#BFE6FA"/><stop offset="1" stop-color="#91afbe"/></radialGradient><radialGradient id="opbg7" cx="30%" cy="22%" r="82%" fx="24%" fy="18%"><stop offset="0" stop-color="#b9bdcc"/><stop offset=".36" stop-color="#a4aabc"/><stop offset=".72" stop-color="#9AA0B5"/><stop offset="1" stop-color="#757a8a"/></radialGradient><radialGradient id="opbg8" cx="30%" cy="22%" r="82%" fx="24%" fy="18%"><stop offset="0" stop-color="#c1dab0"/><stop offset=".36" stop-color="#aece98"/><stop offset=".72" stop-color="#A5C98C"/><stop offset="1" stop-color="#7d996a"/></radialGradient><radialGradient id="opbg9" cx="30%" cy="22%" r="82%" fx="24%" fy="18%"><stop offset="0" stop-color="#6c6c77"/><stop offset=".36" stop-color="#3f3f4e"/><stop offset=".72" stop-color="#2a2a3a"/><stop offset="1" stop-color="#20202c"/></radialGradient><radialGradient id="opbg10" cx="30%" cy="22%" r="82%" fx="24%" fy="18%"><stop offset="0" stop-color="#f9f7f2"/><stop offset=".36" stop-color="#f8f5ee"/><stop offset=".72" stop-color="#f7f4ec"/><stop offset="1" stop-color="#bcb9b3"/></radialGradient><radialGradient id="opbg11" cx="30%" cy="22%" r="82%" fx="24%" fy="18%"><stop offset="0" stop-color="#9ac39a"/><stop offset=".36" stop-color="#7bb17b"/><stop offset=".72" stop-color="#6CA86C"/><stop offset="1" stop-color="#528052"/></radialGradient><radialGradient id="opbg12" cx="30%" cy="22%" r="82%" fx="24%" fy="18%"><stop offset="0" stop-color="#8aac8a"/><stop offset=".36" stop-color="#679267"/><stop offset=".72" stop-color="#568656"/><stop offset="1" stop-color="#416641"/></radialGradient><radialGradient id="opbg13" cx="30%" cy="22%" r="82%" fx="24%" fy="18%"><stop offset="0" stop-color="#e8f4ff"/><stop offset=".36" stop-color="#e0f1ff"/><stop offset=".72" stop-color="#DDEFFF"/><stop offset="1" stop-color="#a8b6c2"/></radialGradient><radialGradient id="opbg14" cx="30%" cy="22%" r="82%" fx="24%" fy="18%"><stop offset="0" stop-color="#6f728c"/><stop offset=".36" stop-color="#434769"/><stop offset=".72" stop-color="#2E3358"/><stop offset="1" stop-color="#232743"/></radialGradient><radialGradient id="opbg15" cx="30%" cy="22%" r="82%" fx="24%" fy="18%"><stop offset="0" stop-color="#b9c0d8"/><stop offset=".36" stop-color="#a4accd"/><stop offset=".72" stop-color="#9AA3C7"/><stop offset="1" stop-color="#757c97"/></radialGradient><radialGradient id="opbg16" cx="30%" cy="22%" r="82%" fx="24%" fy="18%"><stop offset="0" stop-color="#ffeba3"/><stop offset=".36" stop-color="#ffe587"/><stop offset=".72" stop-color="#FFE27A"/><stop offset="1" stop-color="#c2ac5d"/></radialGradient><radialGradient id="opbg17" cx="30%" cy="22%" r="82%" fx="24%" fy="18%"><stop offset="0" stop-color="#827261"/><stop offset=".36" stop-color="#695641"/><stop offset=".72" stop-color="#58432c"/><stop offset="1" stop-color="#302418"/></radialGradient><radialGradient id="opbg18" cx="30%" cy="22%" r="82%" fx="24%" fy="18%"><stop offset="0" stop-color="#c6b27c"/><stop offset=".36" stop-color="#bba262"/><stop offset=".72" stop-color="#b39850"/><stop offset="1" stop-color="#61522b"/></radialGradient></defs><ellipse cx="200" cy="184" rx="20" ry="7" fill="rgba(0,0,0,.12)"/><polygon points="182.2,181.3 201.4,190.9 201.4,186.9 182.2,177.3" fill="url(#opbg0)" stroke="#62657f" stroke-width="0.5" stroke-linejoin="round"/><polygon points="217.8,182.7 201.4,190.9 201.4,186.9 217.8,178.7" fill="url(#opbg1)" stroke="#62657f" stroke-width="0.5" stroke-linejoin="round"/><polygon points="198.6,169.1 217.8,178.7 201.4,186.9 182.2,177.3" fill="url(#opbg2)" stroke="#62657f" stroke-width="0.5" stroke-linejoin="round"/><polygon points="183.2,177.3 201.4,186.4 201.4,176.4 183.2,167.3" fill="url(#opbg3)" stroke="#6494ac" stroke-width="0.5" stroke-linejoin="round"/><polygon points="216.8,178.7 201.4,186.4 201.4,176.4 216.8,168.7" fill="url(#opbg4)" stroke="#6494ac" stroke-width="0.5" stroke-linejoin="round"/><polygon points="198.6,159.6 216.8,168.7 201.4,176.4 183.2,167.3" fill="url(#opbg5)" stroke="#6494ac" stroke-width="0.5" stroke-linejoin="round"/><polygon points="198.6,159.6 216.8,168.7 201.4,176.4 183.2,167.3" fill="url(#opbg6)" opacity=".7"/><g class="crit"><ellipse cx="202" cy="170" rx="10" ry="4" fill="url(#opbg7)"/><ellipse cx="191" cy="165" rx="3.6" ry="2.8" fill="url(#opbg8)"/><circle cx="190" cy="164.4" r=".8" fill="url(#opbg9)"/><circle cx="189.8" cy="164.1" r="0.2" fill="url(#opbg10)" opacity=".94"/><path d="M193 167a9 7 0 0 1 18 0z" fill="url(#opbg11)"/><path d="M197 163l4 -2 4 2-1 4h-6z" fill="url(#opbg12)"/><path d="M195 165l5-4 5 4-1.5 3h-7zM200 161v7M195 165l-3-1m13 1l3-1" fill="none" stroke="#436843" stroke-width=".52" opacity=".65"/><ellipse cx="198.5" cy="162" rx="3.5" ry="0.8" fill="#e1efbf" opacity=".43"/><ellipse cx="190" cy="164.4" rx="1.1" ry="1.2" fill="url(#opbg17)" /><ellipse cx="190" cy="164.7" rx="0.8" ry="0.7" fill="url(#opbg18)" /><ellipse cx="190" cy="164.4" rx="0.5" ry="0.8" fill="#292022" /><ellipse cx="189.7" cy="164" rx="0.3" ry="0.4" fill="#fff" /><circle cx="190.3" cy="164.9" r="0.1" fill="#fff" opacity=".68"/></g><polygon points="182.2,181.3 201.4,190.9 201.4,156.9 182.2,147.3" fill="url(#opbg13)" opacity=".28" stroke="#FFFFFF" stroke-width="1"/><polygon points="217.8,182.7 201.4,190.9 201.4,156.9 217.8,148.7" fill="url(#opbg13)" opacity=".2" stroke="#FFFFFF" stroke-width="1"/><polygon points="198.6,139.1 217.8,148.7 201.4,156.9 182.2,147.3" fill="url(#opbg14)" opacity=".55"/><path d="M204.1 148.2a6 5 0 0 1 12 0z" fill="url(#opbg15)"/><circle cx="210.1" cy="149.2" r="2" fill="url(#opbg16)"/><path d="M184.9 152.3L184.9 170.3" fill="none" stroke="#fff" stroke-width=".7" stroke-linecap="round" opacity=".55"/><path d="M188.2 154.3l3 -1.5" fill="none" stroke="#fff" stroke-width=".5" opacity=".43"/></svg>
