<svg xmlns="http://www.w3.org/2000/svg" viewBox="170 114 60 86" aria-hidden="true"><ellipse cx="200" cy="184" rx="20" ry="7" fill="rgba(0,0,0,.12)"/><polygon points="182.2,181.3 201.4,190.9 201.4,186.9 182.2,177.3" fill="#8487aa" stroke="#62657f" stroke-width="0.5" stroke-linejoin="round"/><polygon points="217.8,182.7 201.4,190.9 201.4,186.9 217.8,178.7" fill="#707391" stroke="#62657f" stroke-width="0.5" stroke-linejoin="round"/><polygon points="198.6,169.1 217.8,178.7 201.4,186.9 182.2,177.3" fill="#9ea2c1" stroke="#62657f" stroke-width="0.5" stroke-linejoin="round"/><polygon points="183.2,177.3 201.4,186.4 201.4,176.4 183.2,167.3" fill="#86c6e6" stroke="#6494ac" stroke-width="0.5" stroke-linejoin="round"/><polygon points="216.8,178.7 201.4,186.4 201.4,176.4 216.8,168.7" fill="#72a9c4" stroke="#6494ac" stroke-width="0.5" stroke-linejoin="round"/><polygon points="198.6,159.6 216.8,168.7 201.4,176.4 183.2,167.3" fill="#a1daf7" stroke="#6494ac" stroke-width="0.5" stroke-linejoin="round"/><polygon points="198.6,159.6 216.8,168.7 201.4,176.4 183.2,167.3" fill="#BFE6FA" opacity=".7"/><g class="crit"><ellipse cx="202" cy="170" rx="10" ry="4" fill="#9AA0B5"/><ellipse cx="191" cy="165" rx="3.6" ry="2.8" fill="#A5C98C"/><circle cx="190" cy="164.4" r=".8" fill="#2a2a3a"/><path d="M193 167a9 7 0 0 1 18 0z" fill="#6CA86C"/><path d="M197 163l4 -2 4 2-1 4h-6z" fill="#568656"/></g><polygon points="182.2,181.3 201.4,190.9 201.4,156.9 182.2,147.3" fill="#DDEFFF" opacity=".28" stroke="#FFFFFF" stroke-width="1"/><polygon points="217.8,182.7 201.4,190.9 201.4,156.9 217.8,148.7" fill="#DDEFFF" opacity=".2" stroke="#FFFFFF" stroke-width="1"/><polygon points="198.6,139.1 217.8,148.7 201.4,156.9 182.2,147.3" fill="#2E3358" opacity=".55"/><path d="M204.1 148.2a6 5 0 0 1 12 0z" fill="#9AA3C7"/><circle cx="210.1" cy="149.2" r="2" fill="#FFE27A"/></svg>
